<?xml version="1.0" standalone="no"?>
<!DOCTYPE svg PUBLIC "-//W3C//DTD SVG 20010904//EN"
 "http://www.w3.org/TR/2001/REC-SVG-20010904/DTD/svg10.dtd">
<svg version="1.0" xmlns="http://www.w3.org/2000/svg"
 width="48.000000pt" height="48.000000pt" viewBox="0 0 48.000000 48.000000"
 preserveAspectRatio="xMidYMid meet">

<g transform="translate(0.000000,48.000000) scale(0.100000,-0.100000)"
fill="#000000" stroke="none">
<path d="M178 466 c-90 -24 -161 -103 -162 -179 -1 -40 -1 -41 57 -63 66 -26
95 -21 123 20 20 32 35 25 25 -12 -5 -20 -15 -28 -35 -30 -27 -3 -27 -4 -10
-23 11 -13 13 -19 4 -19 -8 0 -10 -8 -6 -25 7 -28 -11 -34 -32 -13 -10 10 -15
10 -22 -2 -6 -10 -10 -11 -10 -3 0 15 -79 57 -88 48 -12 -12 35 -79 76 -112
95 -72 222 -63 307 22 60 59 83 135 65 212 -29 132 -163 215 -292 179z m170
-93 c2 -9 -9 -13 -37 -13 -27 0 -41 -4 -41 -13 0 -18 -27 -53 -35 -46 -12 13
20 62 50 75 35 16 57 14 63 -3z m0 -45 c14 -14 15 -37 3 -57 -14 -22 -71 5
-71 33 0 20 1 20 20 -4 l20 -25 -6 33 c-7 34 10 44 34 20z m51 -62 c-17 -37
-89 -74 -89 -47 0 6 12 16 28 23 16 8 31 25 37 46 8 27 11 30 23 19 11 -11 11
-19 1 -41z m-189 -161 c0 -11 -40 -24 -57 -18 -14 6 -11 9 17 14 19 4 36 7 38
8 1 0 2 -1 2 -4z"/>
</g>
</svg>
