<svg width="41" height="41" viewBox="0 0 41 41" fill="none" xmlns="http://www.w3.org/2000/svg">
<path d="M19.9066 0.91447C19.8661 0.916928 19.7174 0.924301 19.5748 0.931674C16.0653 1.11354 12.6247 2.24773 9.66691 4.19663C8.10017 5.22761 6.69195 6.46871 5.46559 7.89536C4.10161 9.48299 2.98707 11.2906 2.17483 13.2321C1.43017 15.0151 0.943555 16.9308 0.743258 18.8724C0.717453 19.1304 0.680588 19.5765 0.685504 19.5789C0.686733 19.5802 3.02394 20.5546 5.87847 21.7453L11.069 23.9093L11.23 23.8073C12.2106 23.1818 13.3189 22.8635 14.4654 22.8808L14.7149 22.8832L17.1885 19.2644L19.6633 15.6455L19.6707 15.3334C19.7063 13.8539 20.1511 12.426 20.9634 11.1861C21.8248 9.87007 23.0745 8.82558 24.5085 8.22469C26.2313 7.50337 28.1753 7.42596 29.9399 8.00964C30.5703 8.21731 31.2092 8.52452 31.7524 8.87964C33.5981 10.0851 34.8637 11.9971 35.241 14.1537C35.3307 14.6649 35.3528 14.9451 35.3528 15.5546C35.3516 16.0977 35.3417 16.2464 35.2778 16.6961C34.8613 19.6121 32.8042 22.0968 30.0234 23.0454C29.2284 23.3158 28.4383 23.4497 27.5867 23.4595L27.3287 23.462L23.802 26.0032L20.2753 28.5431L20.2789 28.725C20.2851 28.9511 20.2642 29.3111 20.231 29.5753C20.0406 31.1126 19.2541 32.5183 18.0388 33.4903C16.7633 34.5115 15.1241 34.9502 13.4983 34.7056C12.2794 34.5225 11.1267 33.9376 10.242 33.0516C9.57106 32.3807 9.07339 31.5685 8.78093 30.6665C8.73055 30.5105 8.64699 30.1971 8.61996 30.0669L8.60644 29.9993L5.10432 28.5394C3.17754 27.7358 1.59974 27.0808 1.59728 27.0833C1.59483 27.0858 1.63906 27.2234 1.69436 27.388C3.19228 31.8081 6.21394 35.5928 10.2051 38.0443C11.053 38.5653 11.9943 39.0483 12.9147 39.4366C16.8985 41.1127 21.3566 41.453 25.5714 40.4C27.5277 39.9109 29.441 39.106 31.1687 38.0443C34.1363 36.2208 36.6062 33.628 38.2811 30.5768C40.1636 27.1484 40.9881 23.2408 40.6662 19.2779C40.3184 14.977 38.5748 10.9023 35.692 7.64714C35.198 7.08926 34.5356 6.42816 33.9765 5.93295C32.0915 4.26668 29.9165 2.96905 27.5621 2.10888C25.9217 1.51045 24.1755 1.1246 22.4257 0.974682C21.8383 0.924301 21.6294 0.916928 20.8036 0.913241C20.3514 0.912013 19.9472 0.912013 19.9066 0.91447Z" fill="black"/>
<path d="M27.1997 10.2781C26.4759 10.3445 25.9254 10.4895 25.3368 10.7733C23.3375 11.7367 22.1493 13.8675 22.3778 16.083C22.5314 17.5736 23.2921 18.9056 24.5025 19.8039C25.3933 20.465 26.4563 20.814 27.5806 20.814C28.6522 20.814 29.6782 20.4896 30.5642 19.8715C31.2658 19.3812 31.8581 18.6955 32.2452 17.925C32.5254 17.3647 32.7036 16.7576 32.781 16.0892C32.7908 16.0032 32.7969 15.7979 32.7969 15.5239C32.7957 15.0693 32.7834 14.9132 32.7158 14.5532C32.4713 13.2432 31.718 12.0501 30.6379 11.2636C29.9264 10.7438 29.1289 10.4268 28.2319 10.3064C28.0795 10.2867 27.9616 10.2806 27.6482 10.2769C27.4319 10.2757 27.2304 10.2757 27.1997 10.2781ZM28.0427 11.5917C28.7038 11.6691 29.344 11.9186 29.8785 12.3093C30.0813 12.4568 30.2054 12.5662 30.4069 12.7738C31.5386 13.9338 31.8409 15.6923 31.1651 17.184C30.7755 18.0442 30.0505 18.768 29.1965 19.1526C28.1238 19.6355 26.8913 19.611 25.8431 19.085C25.4769 18.9019 25.1648 18.6783 24.8613 18.3821C24.2653 17.8021 23.8807 17.0821 23.7234 16.2526C23.6325 15.7783 23.6423 15.1725 23.7467 14.6908C23.9569 13.7237 24.5233 12.8623 25.327 12.2885C26.1085 11.7318 27.0854 11.4811 28.0427 11.5917Z" fill="black"/>
<path d="M14.1682 24.3654C13.7565 24.3961 13.4174 24.4625 13.0524 24.5829C12.959 24.6148 12.8878 24.6443 12.8927 24.6492C12.8976 24.6542 13.5083 24.911 14.2481 25.2206C14.9878 25.5291 15.6538 25.8117 15.7288 25.8486C16.3887 26.1803 16.9318 26.7468 17.2304 27.4153C17.6396 28.3345 17.6212 29.3458 17.1788 30.2453C16.7745 31.0649 16.0409 31.6793 15.1672 31.9275C14.8428 32.0209 14.5835 32.0578 14.2702 32.0578C13.9089 32.0578 13.5562 31.9988 13.2343 31.8857C13.152 31.8562 11.5066 31.1742 10.5211 30.7614L10.4731 30.7417L10.4817 30.77C10.4989 30.8265 10.6661 31.1226 10.7779 31.2922C10.9487 31.5515 11.1183 31.7567 11.353 31.9902C11.7241 32.3613 12.0546 32.5972 12.5167 32.8258C13.394 33.2583 14.3734 33.3787 15.354 33.176C16.3383 32.972 17.2587 32.4043 17.8927 31.608C18.4174 30.9494 18.7468 30.1408 18.8463 29.2622C18.8696 29.057 18.8659 28.5261 18.8401 28.3099C18.7357 27.4509 18.4125 26.6719 17.8804 25.9997C17.733 25.8129 17.4 25.4787 17.2156 25.3312C16.5533 24.8028 15.7804 24.4809 14.9485 24.385C14.7408 24.3605 14.3611 24.3519 14.1682 24.3654Z" fill="black"/>
</svg>
