<?xml version="1.0" standalone="no"?>
<!DOCTYPE svg PUBLIC "-//W3C//DTD SVG 20010904//EN"
 "http://www.w3.org/TR/2001/REC-SVG-20010904/DTD/svg10.dtd">
<svg version="1.0" xmlns="http://www.w3.org/2000/svg"
 width="48.000000pt" height="48.000000pt" viewBox="0 0 48.000000 48.000000"
 preserveAspectRatio="xMidYMid meet">

<g transform="translate(0.000000,48.000000) scale(0.100000,-0.100000)"
fill="#000000" stroke="none">
<path d="M75 405 c-21 -21 -25 -33 -25 -88 l0 -64 49 -21 c28 -11 58 -18 68
-16 19 5 63 65 63 87 0 22 44 57 71 57 57 0 94 -61 64 -106 -8 -13 -32 -31
-53 -39 -42 -18 -82 -53 -82 -71 0 -15 -31 -34 -54 -34 -8 0 -29 14 -46 30
-17 17 -35 30 -40 30 -4 0 -15 3 -24 6 -13 5 -16 -1 -16 -32 1 -78 33 -94 190
-94 185 0 189 4 190 193 0 133 -1 139 -25 162 -23 24 -29 25 -165 25 -136 0
-142 -1 -165 -25z"/>
<path d="M270 320 c-24 -24 -24 -29 -4 -58 17 -24 53 -29 72 -10 17 17 15 54
-4 72 -21 21 -40 20 -64 -4z m51 0 c38 -21 12 -79 -31 -65 -22 7 -27 44 -8 63
15 15 15 15 39 2z"/>
<path d="M195 191 c24 -28 10 -57 -26 -54 -21 2 -22 1 -7 -8 25 -14 58 6 58
36 0 15 -9 29 -22 36 l-23 12 20 -22z"/>
</g>
</svg>
