<?xml version="1.0" standalone="no"?>
<!DOCTYPE svg PUBLIC "-//W3C//DTD SVG 20010904//EN"
 "http://www.w3.org/TR/2001/REC-SVG-20010904/DTD/svg10.dtd">
<svg version="1.0" xmlns="http://www.w3.org/2000/svg"
 width="6000.000000pt" height="6000.000000pt" viewBox="0 0 6000.000000 6000.000000"
 preserveAspectRatio="xMidYMid meet">

<g transform="translate(0.000000,6000.000000) scale(0.100000,-0.100000)"
fill="#000000" stroke="none">
<path d="M29365 46304 c-33 -2 -154 -8 -270 -14 -2856 -148 -5656 -1071 -8063
-2657 -1275 -839 -2421 -1849 -3419 -3010 -1110 -1292 -2017 -2763 -2678
-4343 -606 -1451 -1002 -3010 -1165 -4590 -21 -210 -51 -573 -47 -575 1 -1
1903 -794 4226 -1763 l4224 -1761 131 83 c798 509 1700 768 2633 754 l203 -2
2013 2945 2014 2945 6 254 c29 1204 391 2366 1052 3375 701 1071 1718 1921
2885 2410 1402 587 2984 650 4420 175 513 -169 1033 -419 1475 -708 1502 -981
2532 -2537 2839 -4292 73 -416 91 -644 91 -1140 -1 -442 -9 -563 -61 -929
-339 -2373 -2013 -4395 -4276 -5167 -647 -220 -1290 -329 -1983 -337 l-210 -2
-2870 -2068 -2870 -2067 3 -148 c5 -184 -12 -477 -39 -692 -155 -1251 -795
-2395 -1784 -3186 -1038 -831 -2372 -1188 -3695 -989 -992 149 -1930 625
-2650 1346 -546 546 -951 1207 -1189 1941 -41 127 -109 382 -131 488 l-11 55
-2850 1188 c-1568 654 -2852 1187 -2854 1185 -2 -2 34 -114 79 -248 1219
-3597 3678 -6677 6926 -8672 690 -424 1456 -817 2205 -1133 3242 -1364 6870
-1641 10300 -784 1592 398 3149 1053 4555 1917 2415 1484 4425 3594 5788 6077
1532 2790 2203 5970 1941 9195 -283 3500 -1702 6816 -4048 9465 -402 454 -941
992 -1396 1395 -1534 1356 -3304 2412 -5220 3112 -1335 487 -2756 801 -4180
923 -478 41 -648 47 -1320 50 -368 1 -697 1 -730 -1z"/>
<path d="M35300 38684 c-589 -54 -1037 -172 -1516 -403 -1627 -784 -2594
-2518 -2408 -4321 125 -1213 744 -2297 1729 -3028 725 -538 1590 -822 2505
-822 872 0 1707 264 2428 767 571 399 1053 957 1368 1584 228 456 373 950 436
1494 8 70 13 237 13 460 -1 370 -11 497 -66 790 -199 1066 -812 2037 -1691
2677 -579 423 -1228 681 -1958 779 -124 16 -220 21 -475 24 -176 1 -340 1
-365 -1z m686 -1069 c538 -63 1059 -266 1494 -584 165 -120 266 -209 430 -378
921 -944 1167 -2375 617 -3589 -317 -700 -907 -1289 -1602 -1602 -873 -393
-1876 -373 -2729 55 -298 149 -552 331 -799 572 -485 472 -798 1058 -926 1733
-74 386 -66 879 19 1271 171 787 632 1488 1286 1955 636 453 1431 657 2210
567z"/>
<path d="M24695 27220 c-335 -25 -611 -79 -908 -177 -76 -26 -134 -50 -130
-54 4 -4 501 -213 1103 -465 602 -251 1144 -481 1205 -511 537 -270 979 -731
1222 -1275 333 -748 318 -1571 -42 -2303 -329 -667 -926 -1167 -1637 -1369
-264 -76 -475 -106 -730 -106 -294 0 -581 48 -843 140 -67 24 -1406 579 -2208
915 l-39 16 7 -23 c14 -46 150 -287 241 -425 139 -211 277 -378 468 -568 302
-302 571 -494 947 -680 714 -352 1511 -450 2309 -285 801 166 1550 628 2066
1276 427 536 695 1194 776 1909 19 167 16 599 -5 775 -85 699 -348 1333 -781
1880 -120 152 -391 424 -541 544 -539 430 -1168 692 -1845 770 -169 20 -478
27 -635 16z"/>
</g>
</svg>
